# xmcd
#
# Track frame offsets:
#	150
#	16087
#	30705
#	44920
#	56807
#	68922
#	82715
#	97655
#	111275
#	124105
#	138402
#	150215
#	163255
#	177355
#	189445
#	203542
#
# Disc length: 2873 seconds
#
# Revision: 0
# Processed by: cddbd v1.5.2PL0 Copyright (c) Steve Scherf et al.
# Submitted via: EasyCDDAExtractor 16.0.8.2
#
DISCID=cb0b3710
DTITLE=Μυτιληναίος Λευτέρης - Αξέχαστες επιτυχίες-Μυτιληναίος Λ.
DYEAR=1983
DGENRE=Λαϊκή
TTITLE0=Αμφιβολίες [Γρ. Μπιθικώτση]
TTITLE1=Ποιά είσαι εσύ [Αν. Ρεπάνη-Παν. Καμιλιέρη]
TTITLE2=Γιατί μού τη θυμίσατε [Μ. Χριστόπουλου-Στ. Καπίρη]
TTITLE3=Λείπεις εσύ, λείπει η ζωή μου [Μ. Χριστόπουλου-Στ. Καπίρη]
TTITLE4=Κυρά μου αριστοκράτισσα [Δ. Μούτση-Ν. Γκάτσου]
TTITLE5=Δεν μπορώ ν' αλλάξω την καρδιά μου [Τ.Σούκα-Η.Παπασιδέρη]
TTITLE6=Της μοίρας μου η ειρωνία [Αν. Ρεπάνη-Δ. Γκούτη]
TTITLE7=Είναι μικρός ο κόσμος Μάρω [Γ. Κατσαρού-Πυθαγόρα]
TTITLE8=Συγχώρα με που φεύγω [Γ. Κατσαρού-Κ. Ρούβελα]
TTITLE9=Αυτή που θα πάρει τη θέση σου [Αν. Ρεπάνη-Σ. Καπίρη]
TTITLE10=Η καρδιά μου σεννεφιάζει [Δ. Μούτση-Ν. Γκάτσου]
TTITLE11=Είναι στιγμές [Μ. Χριστόπουλου-Στ. Καπίρη]
TTITLE12=Πώς πίστεψες στον άνεμο [Αν. Ρεπάνη-Τ. Τουτοντζή]
TTITLE13=Φεύγω νικημένος [Μ. Χριστόπουλου-Στ. Καπίρη]
TTITLE14=Στον χρυσαφένιο ουρανό [Τ. Σούκα-Η. Παπασιδέρη]
TTITLE15=Και αντίο και αντίο [Γ. Κατσαρού-Πυθαγόρα]
EXTD=
EXTT0=
EXTT1=
EXTT2=
EXTT3=
EXTT4=
EXTT5=
EXTT6=
EXTT7=
EXTT8=
EXTT9=
EXTT10=
EXTT11=
EXTT12=
EXTT13=
EXTT14=
EXTT15=
PLAYORDER=
